<svg width="37" height="38" viewBox="0 0 37 38" fill="none" xmlns="http://www.w3.org/2000/svg">
<path d="M23.388 23.7659C24.749 19.889 27.531 17.1339 30.8296 16.3959L34.5339 15.5672C33.1746 13.2586 31.0269 11.7862 28.3904 11.3839C25.5247 10.9466 22.403 11.8343 19.6006 13.8836C16.7982 15.9329 14.6304 18.9132 13.4965 22.2754C12.5229 25.1622 12.3997 28.048 13.1181 30.5706L17.5088 29.5883C20.1149 29.0053 22.3127 26.8286 23.388 23.7659Z" fill="#9C8E76"/>
<path d="M35.5879 18.048L31.1972 19.0301C28.5911 19.6133 26.3934 21.7898 25.3181 24.8527C23.9571 28.7296 21.1752 31.4847 17.8765 32.2227L14.1722 33.0514C15.5315 35.3599 17.6792 36.8323 20.3157 37.2347C23.1815 37.6721 26.3031 36.7842 29.1055 34.7349C31.9079 32.6856 34.0757 29.7053 35.2096 26.3432C36.1831 23.4563 36.3063 20.5706 35.5879 18.048Z" fill="#3F3631"/>
<path d="M9.29446 17.1355C6.51644 14.7646 4.85735 10.8162 4.8563 6.57334L4.85524 1.80884C2.82428 3.10347 1.3065 5.5267 0.535926 8.74554C-0.301747 12.2442 -0.153546 16.2922 0.953213 20.1436C2.05997 23.9951 4.00074 27.2167 6.41801 29.2148C7.92629 30.4617 9.51208 31.1476 11.0668 31.254C10.233 28.1528 10.3913 24.6714 11.5538 21.2245C11.6283 21.0036 11.7071 20.7844 11.789 20.5667C11.1904 19.212 10.3438 18.0311 9.29446 17.1355Z" fill="#3F3631"/>
<path d="M18.5441 11.5668C18.5905 11.5329 18.6373 11.4999 18.6838 11.4665C17.5584 7.81107 15.6752 4.75872 13.3512 2.83764C11.2757 1.12192 9.05335 0.467111 6.96719 0.9252L6.96846 6.57244C6.96931 9.92442 8.28003 13.0438 10.4747 14.9169C11.4582 15.7563 12.3006 16.7942 12.9797 17.9721C14.3661 15.4368 16.2751 13.226 18.5441 11.5668Z" fill="#3F3631"/>
</svg>